# xmcd
#
# Track frame offsets: 
#        150
#        23658
#        40928
#        65870
#        82564
#        105272
#        119323
#        136193
#        149092
#        165292
#        179919
#        197459
#        210605
#        229789
#
# Disc length: 3294 seconds
#
# Revision: 0
# Processed by: cddbd v1.5.2PL0 Copyright (c) Steve Scherf et al.
# Submitted via: ExactAudioCopy v1.3
#
DISCID=b90cdc0e
DTITLE=The Gourds - Noble Creatures
DYEAR=2007
DGENRE=Country/rock
TTITLE0=How Will You Shine 
TTITLE1=Kicks In The Sun
TTITLE2=Promenade
TTITLE3=A Few Extra Kilos
TTITLE4=Last Letter
TTITLE5=The Gyroscopic
TTITLE6=Moon Gone Down
TTITLE7=Red Letter Day
TTITLE8=Out On The Vine
TTITLE9=Cranky Mulatto
TTITLE10=Steeple Full Of Swallows
TTITLE11=All In The Pack
TTITLE12=Flavor On The Tongue
TTITLE13=Spivey
EXTD=
EXTT0=
EXTT1=
EXTT2=
EXTT3=
EXTT4=
EXTT5=
EXTT6=
EXTT7=
EXTT8=
EXTT9=
EXTT10=
EXTT11=
EXTT12=
EXTT13=
PLAYORDER=
